<svg id="Layer_1" data-name="Layer 1" xmlns="http://www.w3.org/2000/svg" viewBox="0 0 500 500"><defs><style>.cls-1{fill:#10102a;}</style></defs><title>Untitled-1</title><g id="account-circle"><path class="cls-1" d="M261.5,27.24C142.43,27.24,45,124.67,45,243.74s97.43,216.5,216.5,216.5S478,362.82,478,243.74,380.58,27.24,261.5,27.24Zm0,65c36.81,0,64.95,28.15,64.95,64.95s-28.14,65-64.95,65-64.95-28.14-64.95-65S224.7,92.19,261.5,92.19Zm0,307.43c-54.12,0-101.75-28.14-129.9-69.28,0-43.3,86.6-67.11,129.9-67.11S391.4,287,391.4,330.34C363.26,371.48,315.63,399.62,261.5,399.62Z"/></g></svg>