<svg id="Layer_1" data-name="Layer 1" xmlns="http://www.w3.org/2000/svg" viewBox="0 0 512 512"><title>Untitled-1</title><path d="M269.27,467.31h-27a39.67,39.67,0,0,1-39.63-39.62v-9.14a173.75,173.75,0,0,1-27-11.21l-6.48,6.48a39.63,39.63,0,0,1-56,0L94,394.72a39.62,39.62,0,0,1,0-56.05l6.47-6.47a172.33,172.33,0,0,1-11.2-27H80.16a39.67,39.67,0,0,1-39.63-39.62v-27a39.68,39.68,0,0,1,39.63-39.63H89.3a173.59,173.59,0,0,1,11.2-27L94,165.48a39.63,39.63,0,0,1,0-56l19.09-19.1a39.63,39.63,0,0,1,56,0l6.47,6.47a173.7,173.7,0,0,1,27-11.2V76.47a39.68,39.68,0,0,1,39.63-39.63h27A39.68,39.68,0,0,1,308.9,76.47v9.14a173.7,173.7,0,0,1,27,11.2l6.47-6.48a39.64,39.64,0,0,1,56.05,0l19.1,19.09a39.62,39.62,0,0,1,0,56L411,172a173.59,173.59,0,0,1,11.2,27h9.14A39.68,39.68,0,0,1,471,238.57v27a39.67,39.67,0,0,1-39.63,39.62h-9.14a173.7,173.7,0,0,1-11.2,27l6.48,6.48a39.63,39.63,0,0,1,0,56.05l-19.09,19.09a39.63,39.63,0,0,1-56.05,0l-6.47-6.47a174.68,174.68,0,0,1-27,11.2v9.14A39.67,39.67,0,0,1,269.27,467.31Zm-89.41-86.45a148.71,148.71,0,0,0,38.53,16,12.61,12.61,0,0,1,9.46,12.21v18.63a14.42,14.42,0,0,0,14.41,14.4h27a14.42,14.42,0,0,0,14.41-14.4V409.06a12.61,12.61,0,0,1,9.46-12.21,148.71,148.71,0,0,0,38.53-16A12.6,12.6,0,0,1,347,382.8L360.2,396a14.4,14.4,0,0,0,20.37,0l19.1-19.11a14.39,14.39,0,0,0,0-20.36l-13.2-13.2A12.62,12.62,0,0,1,384.55,328a148.71,148.71,0,0,0,16-38.53A12.61,12.61,0,0,1,412.75,280h18.62a14.42,14.42,0,0,0,14.41-14.4v-27a14.42,14.42,0,0,0-14.41-14.4H412.75a12.62,12.62,0,0,1-12.21-9.46,148.78,148.78,0,0,0-16-38.54,12.6,12.6,0,0,1,1.93-15.33l13.19-13.2a14.38,14.38,0,0,0,0-20.36l-19.11-19.11a14.39,14.39,0,0,0-20.36,0L347,121.36a12.62,12.62,0,0,1-15.34,1.94,148.74,148.74,0,0,0-38.53-16,12.6,12.6,0,0,1-9.46-12.21V76.47a14.42,14.42,0,0,0-14.41-14.4h-27a14.43,14.43,0,0,0-14.41,14.4V95.09a12.6,12.6,0,0,1-9.46,12.21,148.39,148.39,0,0,0-38.53,16,12.62,12.62,0,0,1-15.34-1.94l-13.19-13.19a14.41,14.41,0,0,0-20.37,0l-19.1,19.11a14.4,14.4,0,0,0,0,20.37l13.2,13.19A12.62,12.62,0,0,1,127,176.17a148.54,148.54,0,0,0-16,38.53,12.61,12.61,0,0,1-12.21,9.46H80.16a14.43,14.43,0,0,0-14.41,14.41v27A14.43,14.43,0,0,0,80.16,280H98.78A12.61,12.61,0,0,1,111,289.45,148.71,148.71,0,0,0,127,328a12.62,12.62,0,0,1-1.93,15.34l-13.19,13.19a14.39,14.39,0,0,0,0,20.37L131,396a14.4,14.4,0,0,0,20.36,0l13.2-13.2a12.68,12.68,0,0,1,15.34-1.93Z"/><path d="M255.76,345.74a93.66,93.66,0,1,1,93.67-93.66A93.77,93.77,0,0,1,255.76,345.74Zm0-162.1a68.44,68.44,0,1,0,68.44,68.44,68.51,68.51,0,0,0-68.44-68.44Z"/></svg>